<svg xmlns="http://www.w3.org/2000/svg" height="70px" viewBox="0 0 1412.43 1362.25"><g fill="#737f8a" id="Camada_2" data-name="Camada 2"><g id="Camada_1-2" data-name="Camada 1"><path d="M0,576.3c1.43-2.66,3.07-5.23,4.25-8C17,538.41,39,521.85,71.91,520.62c15-.56,33.71,4,44.1-3.31,9.72-6.81,10-26.41,15.62-39.9,11.2-27,23.19-53.71,36.05-83.28-8.59-8-19-17-28.61-26.8-31.8-32.55-31.67-75.53.41-107.89q59.22-59.74,119-118.95c32.42-32.1,75.32-32.15,108-.56,7.59,7.35,15.42,14.54,22.31,22.52,5.35,6.19,9.7,5.24,16.55,2.27q51.63-22.38,103.94-43.18c7.07-2.81,10.06-5.56,10-13.46-.2-15.56-.8-31.43,1.8-46.66C527.06,25.54,555.76,1,592.1.57,650.93-.1,709.78-.3,768.59.64c41.48.66,71.95,33.22,72.53,74.84.19,13.76-4.46,30.91,2,40.32,6.36,9.18,24.36,9.92,36.86,15.29,25.24,10.85,50.36,22,75.18,33.76,6.92,3.28,11.21,3.42,16.54-2.52a365,365,0,0,1,26.38-26.25c29.12-26.46,71.52-26.68,99.77.84q64.18,62.55,126.69,126.8c26.91,27.73,26.94,70,1,98.73-10.43,11.54-22.76,21.36-34,31.8,9.26,19.65,18,36.67,25.4,54.29,7.94,19,15.64,38.23,21.32,58,3.39,11.8,9,15,20.31,14.19,11-.81,22.06-.37,33.07.18,37.82,1.92,67.82,31.75,68.24,69.51.68,60.2.12,120.42.26,180.63.05,20.55-9.49,36.83-22.7,51.86,36.61,41,61.08,87.7,70.31,141.53,15.35,89.53-6.79,169.17-65.19,238.66-9.79,11.65-21.44,12.91-31.32,4.49-9.35-8-9.86-20.72-.39-31.79,37.5-43.82,57.38-94.7,59.82-152,4.76-111.41-73.57-215.83-181.7-243.28C1046.83,744.38,906.57,838,885.78,982.8c-21.77,151.58,105.78,287.61,258.1,275.74a252.26,252.26,0,0,0,96-26.79c9.08-4.63,18.76-5.57,25.15,2.44,4.25,5.34,7.06,14.53,5.64,20.92-1.31,5.87-8.22,12.22-14.23,15.06-103.9,49-203.46,41.23-298-24.34a190.75,190.75,0,0,1-27.34-23.08c-6.46-6.59-11.67-7.72-20.37-4-19.4,8.17-39.24,15.41-59.29,21.81-8.15,2.6-10.79,6.2-10.44,14.44.57,13.29,1,26.73-.27,40a73,73,0,0,1-72,66.68q-88.23,1.37-176.49.05c-41.49-.59-72.29-32.79-73.19-74.37-.25-11.48.68-23-.45-34.43-.4-4.1-4.41-9.69-8.18-11.32-35.29-15.21-71-29.42-106.26-44.68-6.85-3-10.61-2.1-15.32,3-8.13,8.75-16.57,17.25-25.38,25.31-30.32,27.77-72.51,28.06-101.89-.57q-63.21-61.59-124.82-124.78c-28.95-29.68-28.35-72.81.52-102.82,10.14-10.54,21.42-20,29.3-27.27-16.8-42.9-32-82.1-47.71-121.07-1.24-3.07-6.21-6.29-9.66-6.54-11.43-.83-23-.13-34.45-.39-34.91-.8-59-17.84-71.49-50.28A38,38,0,0,0,0,785.93Zm845.66,487.43-15.2,5.85c-77.53,29.65-157.19,36.64-238.09,18.6C306.53,1024.45,172.84,701,331.32,455c20.38-31.64,48.69-58.3,74.2-86.48,9.66-10.67,23.36-9.89,31.61-.8s7,21.43-3.56,31.7c-1.32,1.28-2.77,2.42-4.11,3.68-95.81,90-138.35,201-119.4,330.58,20.59,140.84,100.86,239.13,232,295.23,10.74,4.59,22,7.87,34.78,12.36v-16c0-60.22-.29-120.44.26-180.66.1-10.67-3.26-15.63-12.78-20.79-76.19-41.35-121.09-105.51-127.64-191.9-7-92.69,30.9-166,108.18-218.14,17-11.49,35.89-20.76,56.45-8.74,20.11,11.76,19.94,32.17,19.79,52.36-.37,47.8-.81,95.61-.3,143.41.34,31.86,26.5,60,56.85,63,24.26,2.42,52.58-21.13,59.67-50.1a81.52,81.52,0,0,0,2-19c.11-51-.7-102.05.19-153.06.59-33.21,26-49.54,56.95-37.67a122.59,122.59,0,0,1,25.24,13.85C970,520.1,955,743.32,794.12,824.65c-9,4.55-11.13,9.8-11.08,19,.36,60.68.18,121.36.18,182v16.62c19.48-7.74,36.94-14.25,53.9-21.87,2.65-1.19,3.76-7.34,4.33-11.38,2.57-18.14,2.95-36.77,7.26-54.46,25.44-104.48,89.49-174.44,190.89-210.16,6.34-2.23,10.77-4.22,11.72-12.59,5.5-48.39,3.28-96.12-8.44-143.51C1000,415,831.59,293.69,654.08,307.82a392.11,392.11,0,0,0-144.82,40c-15.6,7.74-27.28,5.34-33.3-6.31-6.24-12.07-.69-23.33,15.31-31.52C543,283.45,598.14,268.31,656,265.3c100.32-5.22,192.36,20.84,272.25,82.14,116.22,89.17,172.37,207.88,167.43,354.83-.31,9.46,0,18.93,0,29.57,78.3-6.88,148.52,13.21,213.29,63.78,3.69-10.73,9.13-19.35,9.25-28,.77-57.45.59-114.91.3-172.37-.1-20-13.08-32.48-33-32.77-17.92-.27-35.86-.38-53.78,0-14,.32-22.58-5.55-26.14-19.2a532.21,532.21,0,0,0-56.07-135.51c-7.1-12.1-6.15-22.3,4-32.1,12.27-11.78,24.18-23.93,36.11-36,17.38-17.68,17.6-33.93.22-51.42Q1132,230,1073.83,172.12c-18.59-18.49-34.59-18.14-53.55.7q-18.1,18-36.09,36.08c-8.57,8.56-18,10.09-28.65,3.84a543.63,543.63,0,0,0-138-57.25c-13.21-3.46-18.66-11.89-18.45-25.18.27-17.47.42-34.95-.07-52.4-.65-23.39-12-34.61-35.1-34.68Q680.47,43,597,43.22c-24.32.07-35,10.82-35.48,35.42-.3,16.54.09,33.09-.13,49.64-.24,17.43-4.55,23.63-20.71,27.85a530.35,530.35,0,0,0-134.15,55.78c-12.09,7.06-22.34,5.8-32.1-4.39q-18.6-19.41-38-38c-15.15-14.55-32.62-14.59-47.58.25q-60.23,59.72-119.93,120c-15.48,15.61-15.28,32.44.16,48.45,12.12,12.57,24.42,25,37.08,37,10.75,10.2,11.51,20.78,4.15,33.27a532.08,532.08,0,0,0-55.61,134.22c-3.63,13.65-11.56,20-25.6,19.78-17.46-.29-34.93-.16-52.4,0-22.25.16-35.16,12.53-35.27,34.94q-.42,84.12,0,168.24c.13,21.64,13.15,34,34.55,34.25,17.93.18,35.86.22,53.79,0,13.47-.16,21.29,6.11,24.73,19.09a537.11,537.11,0,0,0,56.12,135.49c7,11.94,6.22,22.33-4,32.16-12.59,12.1-24.9,24.51-37.07,37-16.06,16.53-16.25,33.27-.16,49.47q59.27,59.68,119,119c15.63,15.51,32.82,15.46,48.57.24,12.88-12.45,25.53-25.17,38-38,9.37-9.64,19.33-11,30.95-4.22,42.57,24.93,87.62,44,135.46,56.19,14.31,3.65,20.35,12.69,20.14,27-.24,17-.3,34,.05,51,.49,23.84,11.23,34.66,34.75,34.73q83.43.27,166.86,0c24-.06,35.24-11.22,35.84-35.38.39-15.62,0-31.26.1-46.89.08-22.15,2.91-25.08,24.32-31.67,23.47-7.22,46.62-15.47,71.09-23.68C869.29,1144.65,853.53,1106.85,845.66,1063.73ZM780.9,442.51c0,9.2,0,15.61,0,22-.09,48.26.92,96.55-.56,144.77-1.61,52.27-54.54,99.74-105.1,96.44-49.55-3.24-94.9-49.47-95.78-99.2-.85-47.33-.21-94.68-.22-142v-22.4c-8.48,5.26-14.93,8.6-20.63,12.91-57,43.1-86,100.71-80.36,171.75,6.1,77.06,46.33,133.27,117.39,165.1,17.36,7.77,24.18,17.63,24,36.39-.77,68.49-.3,137-.3,205.48v19h122v-18c0-68.95.57-137.91-.37-206.85-.25-19,6.51-28.72,24-36.14,112.64-47.9,152.94-188.38,83.45-289C831.25,478.06,810,457.63,780.9,442.51Z"/><path d="M1094.85,983c24.38-29,47.38-57,71.09-84.38,20.56-23.73,46.56-32.08,76.82-22.53,49.11,15.5,64.87,74.11,31.11,115.21-24.18,29.43-48.92,58.41-73.39,87.61-13.27,15.83-26.39,31.78-39.77,47.52-30,35.31-71.33,39-106.71,9.38-20.42-17.07-40.69-34.33-61-51.59-32.08-27.32-36.7-71.11-10.78-101.72,26.35-31.12,69.17-34.35,102-7.72C1087.36,977.33,1090.63,979.74,1094.85,983ZM1250,947.69c-.66-17.28-6.7-26.83-18.58-31-13.3-4.64-25.14-1.23-34.51,10q-38.78,46.56-77.88,92.84c-15.82,18.73-23.86,19.34-42.23,3.83-6-5-11.83-10.17-17.9-15.08-16.07-13-32.52-12.75-44,.59-11.32,13.18-9.3,30.24,5.9,43.53q30.06,26.28,60.83,51.76c16.44,13.64,31.8,12.57,45.61-3.74q57.39-67.79,114-136.24C1246,958.56,1248.35,951,1250,947.69Z"/></g></g></svg>