<svg xmlns="http://www.w3.org/2000/svg" height="70px" viewBox="0 0 548.92 514.5"><g fill="#737f8a" id="Camada_2" data-name="Camada 2"><g id="Camada_1-2" data-name="Camada 1"><path d="M326.29,116.22c20.25,33.28,41.88,67.5,62.09,102.54,12.61,21.85,20.7,45.62,19,71.52-2,31-13.82,57.23-42.33,71.81-29,14.85-59.19,14.06-86.14-5.29-28.57-20.53-36.83-50.72-33.27-84.39,3.39-32,20.12-58.57,36.74-85.07C297.34,163.47,312,139.4,326.29,116.22Z"/><path d="M211.43,189.46c9.83,16.35,19.84,32.6,29.31,49.15,1.43,2.5,1.15,6.66.32,9.68-9.29,33.64-7.95,66,12.39,95.56,4.92,7.15,11.44,13.48,18.19,19,4.7,3.83,4.94,6.6,2.45,11.59-12.79,25.7-39.39,40.17-69.33,37.33-30.16-2.86-52.79-22.28-60.58-52.32-7.31-28.21-.68-54.47,13.19-78.93,12.75-22.5,27.11-44.09,40.51-66.23C202.86,206.05,207.13,197.39,211.43,189.46ZM178,339.61c0-1.47.41-3.1-.08-4.38-1.08-2.78-2.61-5.39-4-8.07-1.7,2.65-4.79,5.27-4.83,7.94-.1,7.87.1,16,1.84,23.59,3.4,14.94,13,24.79,27.94,28.73,2,.52,4.69-1.67,7.07-2.6-1.35-2-2.31-5.12-4.09-5.68C182.16,372.94,178.05,357.5,178,339.61Z"/><path d="M522.62,188.37l-7.41.76c-9.07-19.39-16.48-38.68-26.64-56.39C437.78,44.29,337.54-4.17,237.05,12.45c-93.46,15.45-157.67,68.9-194.24,156-.45,1.08-.57,2.49-1.34,3.22-2.06,1.94-4.39,3.59-6.61,5.35-.68-2.95-2.63-6.36-1.79-8.79A216.8,216.8,0,0,1,43.59,143C119.2-9.8,321.27-48,447.35,66.66,483.73,99.74,508.42,140,522.62,188.37Z"/><path d="M27.45,326.76c6.73-3.54,8.58.14,10.68,6.08,32.09,90.78,94.65,148.43,189.21,167.69C345.48,524.59,461.52,459.43,506,346.62c.44-1.09.46-2.59,1.23-3.25,2.32-2,4.9-3.63,7.38-5.41.48,2.83,2.09,6.06,1.26,8.43a233.62,233.62,0,0,1-38.75,69.89c-43.37,54-99.22,87.81-168,96C209.89,524,128.92,489.3,67.49,410.35c-17.86-23-30.5-48.81-39-76.66q-.76-2.51-1.32-5.09A6.16,6.16,0,0,1,27.45,326.76Z"/><path d="M548.92,194.51l-23.07,54.11-38.47-46.34Z"/><path d="M23,266.12l38.56,46.45L0,320.13C7.79,301.81,15.07,284.66,23,266.12Z"/></g></g></svg>